<svg xmlns="http://www.w3.org/2000/svg" xmlns:xlink="http://www.w3.org/1999/xlink" width="52px" height="52px" viewBox="0 0 52 52" version="1.1">
<defs>
<linearGradient id="linear0" gradientUnits="userSpaceOnUse" x1="5.15" y1="16.5" x2="58.85" y2="47.5" gradientTransform="matrix(0.8125,0,0,0.8125,0,0)">
<stop offset="0" style="stop-color:rgb(11.764706%,76.862745%,100%);stop-opacity:1;"/>
<stop offset="0.15" style="stop-color:rgb(17.647059%,72.54902%,100%);stop-opacity:1;"/>
<stop offset="0.43" style="stop-color:rgb(32.54902%,61.176471%,100%);stop-opacity:1;"/>
<stop offset="0.81" style="stop-color:rgb(56.862745%,43.137255%,100%);stop-opacity:1;"/>
<stop offset="1" style="stop-color:rgb(69.803922%,33.333333%,100%);stop-opacity:1;"/>
</linearGradient>
</defs>
<g id="surface1">
<path style=" stroke:none;fill-rule:nonzero;fill:url(#linear0);" d="M 33.890625 49.089844 C 33.949219 49.300781 33.921875 49.527344 33.8125 49.714844 C 33.703125 49.90625 33.523438 50.042969 33.3125 50.097656 C 29.089844 51.375 24.609375 51.527344 20.3125 50.546875 C 19.875 50.445312 19.601562 50.007812 19.703125 49.570312 C 19.804688 49.132812 20.242188 48.859375 20.679688 48.960938 C 24.707031 49.886719 28.910156 49.742188 32.867188 48.546875 C 33.074219 48.480469 33.300781 48.5 33.492188 48.605469 C 33.683594 48.707031 33.828125 48.882812 33.890625 49.089844 Z M 47.9375 36.75 C 47.542969 36.539062 47.050781 36.6875 46.839844 37.082031 C 44.894531 40.734375 42.023438 43.816406 38.519531 46.019531 C 38.140625 46.257812 38.023438 46.761719 38.261719 47.140625 C 38.5 47.523438 39 47.640625 39.382812 47.402344 C 43.113281 45.039062 46.167969 41.746094 48.238281 37.847656 C 48.453125 37.460938 48.320312 36.972656 47.9375 36.75 Z M 44.6875 38.1875 C 47.050781 34.5625 48.308594 30.328125 48.304688 26 C 48.304688 25.550781 47.9375 25.1875 47.492188 25.1875 C 47.042969 25.1875 46.679688 25.550781 46.679688 26 C 46.683594 30.011719 45.519531 33.933594 43.332031 37.292969 C 41.542969 40.03125 39.132812 42.3125 36.300781 43.949219 L 36.253906 43.949219 C 34.386719 45.019531 32.363281 45.789062 30.257812 46.230469 C 27.058594 46.898438 23.746094 46.804688 20.589844 45.964844 C 20.164062 45.863281 19.734375 46.121094 19.621094 46.542969 C 19.507812 46.964844 19.746094 47.402344 20.167969 47.53125 C 23.570312 48.441406 27.140625 48.539062 30.589844 47.816406 C 32.875 47.332031 35.070312 46.488281 37.089844 45.320312 L 37.140625 45.320312 C 40.175781 43.5625 42.761719 41.121094 44.6875 38.1875 Z M 38.585938 38.609375 C 35.332031 41.871094 30.9375 43.738281 26.332031 43.816406 C 25.882812 43.816406 25.519531 44.183594 25.519531 44.628906 C 25.519531 45.078125 25.882812 45.441406 26.332031 45.441406 C 31.367188 45.359375 36.167969 43.320312 39.722656 39.753906 L 39.96875 39.488281 C 43.496094 35.882812 45.484375 31.046875 45.5 26 C 45.5 25.550781 45.136719 25.1875 44.6875 25.1875 C 44.238281 25.1875 43.875 25.550781 43.875 26 C 43.878906 30.609375 42.089844 35.042969 38.886719 38.359375 Z M 25.660156 41.4375 C 25.535156 41.4375 13.136719 35.523438 13.136719 22.75 L 13.136719 18.453125 C 13.136719 18.164062 13.289062 17.898438 13.535156 17.753906 L 25.585938 10.5625 C 25.835938 10.417969 26.148438 10.417969 26.398438 10.5625 L 38.449219 17.730469 C 38.695312 17.875 38.84375 18.140625 38.84375 18.425781 L 38.84375 22.75 C 38.84375 35.5625 26.445312 41.4375 26.324219 41.496094 C 26.109375 41.59375 25.859375 41.59375 25.640625 41.496094 Z M 26 39.8125 C 27.917969 38.796875 37.238281 33.3125 37.238281 22.75 L 37.238281 18.90625 L 26 12.1875 L 14.761719 18.90625 L 14.761719 22.75 C 14.761719 33.3125 24.082031 38.796875 26 39.8125 Z M 31.753906 22.992188 C 31.4375 22.679688 30.921875 22.679688 30.605469 22.992188 L 25.015625 28.582031 L 21.855469 25.421875 C 21.535156 25.148438 21.054688 25.164062 20.753906 25.464844 C 20.453125 25.765625 20.433594 26.246094 20.710938 26.570312 L 24.441406 30.296875 C 24.757812 30.613281 25.269531 30.613281 25.585938 30.296875 L 31.753906 24.132812 C 32.066406 23.8125 32.066406 23.300781 31.753906 22.984375 Z M 18.890625 3.492188 C 18.96875 3.503906 19.046875 3.503906 19.125 3.492188 C 23.082031 2.296875 27.285156 2.15625 31.3125 3.078125 C 31.761719 3.183594 32.210938 2.902344 32.3125 2.453125 C 32.417969 2.003906 32.136719 1.558594 31.6875 1.453125 C 27.390625 0.472656 22.910156 0.625 18.6875 1.902344 C 18.238281 1.964844 17.929688 2.382812 17.992188 2.832031 C 18.058594 3.28125 18.472656 3.589844 18.921875 3.527344 Z M 4.0625 15.25 C 4.457031 15.460938 4.949219 15.3125 5.160156 14.917969 C 7.105469 11.265625 9.976562 8.183594 13.480469 5.980469 C 13.800781 5.878906 14.027344 5.589844 14.042969 5.25 C 14.0625 4.914062 13.875 4.601562 13.566406 4.464844 C 13.257812 4.328125 12.898438 4.394531 12.660156 4.632812 C 8.914062 6.976562 5.847656 10.257812 3.761719 14.152344 C 3.546875 14.539062 3.679688 15.027344 4.0625 15.25 Z M 15.671875 8.050781 L 15.722656 8.050781 C 17.589844 6.980469 19.617188 6.210938 21.726562 5.769531 C 24.925781 5.101562 28.238281 5.191406 31.394531 6.035156 C 31.679688 6.125 31.988281 6.050781 32.199219 5.84375 C 32.414062 5.632812 32.496094 5.328125 32.414062 5.042969 C 32.335938 4.757812 32.105469 4.535156 31.816406 4.46875 C 28.414062 3.558594 24.84375 3.460938 21.394531 4.183594 C 19.109375 4.667969 16.914062 5.511719 14.894531 6.679688 L 14.84375 6.679688 C 11.8125 8.4375 9.234375 10.882812 7.3125 13.8125 C 4.9375 17.433594 3.675781 21.667969 3.671875 26 C 3.671875 26.449219 4.035156 26.8125 4.484375 26.8125 C 4.933594 26.8125 5.296875 26.449219 5.296875 26 C 5.292969 21.988281 6.457031 18.066406 8.644531 14.707031 C 10.433594 11.96875 12.84375 9.691406 15.671875 8.050781 Z M 13.15625 13.640625 L 13.390625 13.390625 C 16.644531 10.128906 21.039062 8.261719 25.640625 8.183594 C 26.089844 8.183594 26.453125 7.816406 26.453125 7.371094 C 26.453125 6.921875 26.089844 6.558594 25.640625 6.558594 C 20.609375 6.640625 15.808594 8.679688 12.253906 12.246094 L 12 12.511719 C 8.480469 16.121094 6.507812 20.960938 6.5 26 C 6.5 26.449219 6.863281 26.8125 7.3125 26.8125 C 7.761719 26.8125 8.125 26.449219 8.125 26 C 8.128906 25.394531 8.160156 24.789062 8.222656 24.1875 C 8.632812 20.21875 10.371094 16.503906 13.15625 13.640625 Z M 13.15625 13.640625 "/>
</g>
</svg>
