<svg xmlns="http://www.w3.org/2000/svg" data-name="Layer 1" viewBox="0 0 64 64" id="security"><defs><linearGradient id="a" x1="5.15" x2="58.85" y1="16.5" y2="47.5" gradientUnits="userSpaceOnUse"><stop offset="0" stop-color="#1ec4ff"></stop><stop offset=".15" stop-color="#2db9ff"></stop><stop offset=".43" stop-color="#539cff"></stop><stop offset=".81" stop-color="#916eff"></stop><stop offset="1" stop-color="#b255ff"></stop></linearGradient></defs><path fill="url(#a)" d="M41.71,60.42A1,1,0,0,1,41,61.66a31.22,31.22,0,0,1-16,.55,1,1,0,0,1,.45-1.95,29.22,29.22,0,0,0,15-.51A1,1,0,0,1,41.71,60.42ZM59,45.23a1,1,0,0,0-1.35.41,29.24,29.24,0,0,1-10.24,11,1,1,0,0,0,1.06,1.7A31.25,31.25,0,0,0,59.37,46.58,1,1,0,0,0,59,45.23ZM55,47a27.38,27.38,0,0,0,4.45-15,1,1,0,0,0-2,0,25.38,25.38,0,0,1-4.12,13.9,25.71,25.71,0,0,1-8.65,8.19l-.06,0a25.33,25.33,0,0,1-7.38,2.81,25.75,25.75,0,0,1-11.9-.33,1,1,0,0,0-.52,1.93,27.72,27.72,0,0,0,12.83.35,27.35,27.35,0,0,0,8-3.07l.06,0A27.73,27.73,0,0,0,55,47Zm-7.51.52a21.83,21.83,0,0,1-15.08,6.41,1,1,0,0,0,0,2h0a23.84,23.84,0,0,0,16.48-7l.3-.33A23.83,23.83,0,0,0,56,32a1,1,0,0,0-2,0,21.85,21.85,0,0,1-6.14,15.21ZM31.58,51C31.43,51,16.17,43.72,16.17,28V22.71a1,1,0,0,1,.49-.86L31.49,13a1,1,0,0,1,1,0l14.83,8.82a1,1,0,0,1,.49.86V28c0,15.77-15.26,23-15.41,23.07a1,1,0,0,1-.84,0ZM32,49c2.36-1.25,13.83-8,13.83-21V23.27L32,15,18.17,23.27V28C18.17,41,29.64,47.75,32,49Zm7.08-20.7a1,1,0,0,0-1.41,0l-6.88,6.88L26.9,31.29a1,1,0,0,0-1.41,1.41l4.59,4.59a1,1,0,0,0,1.41,0l7.59-7.59A1,1,0,0,0,39.08,28.29Zm-15.83-24a1,1,0,0,0,.29,0,29.26,29.26,0,0,1,15-.51A1,1,0,0,0,39,1.79a31.26,31.26,0,0,0-16,.55,1,1,0,0,0,.29,2ZM5,18.77a1,1,0,0,0,1.35-.41,29.25,29.25,0,0,1,10.24-11A1,1,0,1,0,15.58,5.7,31.24,31.24,0,0,0,4.63,17.42,1,1,0,0,0,5,18.77ZM19.29,9.91l.06,0a25.32,25.32,0,0,1,7.39-2.81,25.71,25.71,0,0,1,11.9.33,1,1,0,1,0,.52-1.93,27.72,27.72,0,0,0-12.83-.35,27.32,27.32,0,0,0-8,3.07l-.06,0A27.73,27.73,0,0,0,9,17,27.38,27.38,0,0,0,4.52,32a1,1,0,0,0,2,0,25.39,25.39,0,0,1,4.12-13.9A25.72,25.72,0,0,1,19.29,9.91Zm-3.1,6.88.29-.31a21.84,21.84,0,0,1,15.08-6.41,1,1,0,0,0,1-1,1,1,0,0,0-1-1,23.85,23.85,0,0,0-16.48,7l-.31.33A23.83,23.83,0,0,0,8,32a1,1,0,1,0,2,0,22.12,22.12,0,0,1,.12-2.23A21.85,21.85,0,0,1,16.19,16.79Z"></path></svg>
