<svg
  width="114.196"
  height="19.169"
  viewBox="0 0 114.196 19.169"
  xmlns="http://www.w3.org/2000/svg"
>
  <defs>
    <linearGradient
      id="editing-gradient-gradient"
      x1="0.11142701927151472"
      x2="0.8885729807284852"
      y1="0.8146601955249189"
      y2="0.18533980447508108"
      gradientUnits="objectBoundingBox"
    >
      <stop offset="0" stop-color="#f0f"></stop>
      <stop offset="1" stop-color="#0ff"></stop>
    </linearGradient>
  </defs>
  <g
    id="svgGroup"
    stroke-linecap="round"
    fill-rule="evenodd"
    font-size="9pt"
  >
    <path
      d="M 113.379 4.166 L 113.379 6.355 A 8.128 8.128 0 0 1 113.309 7.449 A 6.061 6.061 0 0 1 113.089 8.451 A 6.305 6.305 0 0 1 112.646 9.519 A 5.319 5.319 0 0 1 112.304 10.079 Q 111.81 10.784 111.164 11.285 A 6.872 6.872 0 0 1 109.813 12.109 A 6.538 6.538 0 0 1 108.479 12.558 A 6.087 6.087 0 0 1 108.389 12.577 A 7.547 7.547 0 0 1 107.608 12.695 A 6.052 6.052 0 0 1 107.038 12.722 L 114.196 18.905 L 108.896 18.905 L 101.751 12.722 L 99.286 12.722 L 99.286 9.295 L 107.038 9.295 A 4.245 4.245 0 0 0 107.801 9.164 A 3.575 3.575 0 0 0 108.218 9.024 A 3.006 3.006 0 0 0 108.95 8.602 A 2.753 2.753 0 0 0 109.14 8.438 A 2.507 2.507 0 0 0 109.74 7.548 A 2.828 2.828 0 0 0 109.916 6.881 A 3.747 3.747 0 0 0 109.951 6.355 L 109.951 4.193 Q 109.951 3.924 109.889 3.774 A 0.48 0.48 0 0 0 109.879 3.751 A 0.67 0.67 0 0 0 109.814 3.641 Q 109.761 3.57 109.694 3.527 A 0.544 0.544 0 0 0 109.507 3.449 A 0.519 0.519 0 0 0 109.457 3.441 A 2.529 2.529 0 0 0 109.336 3.431 A 1.938 1.938 0 0 0 109.226 3.428 L 97.915 3.428 L 97.915 18.905 L 94.487 18.905 L 94.487 1.727 A 1.731 1.731 0 0 1 94.619 1.055 Q 94.75 0.738 94.981 0.501 Q 95.212 0.264 95.528 0.132 Q 95.845 0 96.214 0 L 109.226 0 A 5.264 5.264 0 0 1 110.099 0.069 Q 110.583 0.15 110.984 0.328 A 3.069 3.069 0 0 1 111.164 0.415 A 4.25 4.25 0 0 1 111.996 0.981 A 3.605 3.605 0 0 1 112.449 1.457 A 4.052 4.052 0 0 1 113.148 2.763 A 3.899 3.899 0 0 1 113.161 2.808 A 5.442 5.442 0 0 1 113.325 3.51 A 4.146 4.146 0 0 1 113.379 4.166 Z M 17.152 0 L 20.975 0 L 12.023 18.233 A 1.661 1.661 0 0 1 11.397 18.912 Q 10.982 19.169 10.481 19.169 A 1.684 1.684 0 0 1 9.578 18.912 Q 9.163 18.655 8.938 18.233 L 0 0 L 3.836 0 L 10.481 13.619 L 17.152 0 Z M 64.006 14.093 L 64.006 14.753 A 4.213 4.213 0 0 1 63.938 15.494 A 5.541 5.541 0 0 1 63.789 16.11 Q 63.571 16.836 63.077 17.455 A 3.782 3.782 0 0 1 62.213 18.24 A 4.642 4.642 0 0 1 61.792 18.49 A 3.447 3.447 0 0 1 60.881 18.808 Q 60.483 18.89 60.025 18.903 A 6.117 6.117 0 0 1 59.854 18.905 L 46.841 18.905 A 1.816 1.816 0 0 1 46.322 18.833 A 1.66 1.66 0 0 1 46.156 18.774 Q 45.839 18.642 45.609 18.411 Q 45.378 18.18 45.246 17.864 Q 45.114 17.547 45.114 17.178 L 45.114 1.727 A 1.731 1.731 0 0 1 45.246 1.055 Q 45.378 0.738 45.609 0.501 Q 45.839 0.264 46.156 0.132 Q 46.472 0 46.841 0 L 58.311 0 A 4.093 4.093 0 0 1 59.052 0.071 A 5.406 5.406 0 0 1 59.669 0.224 Q 60.394 0.448 61.02 0.943 A 3.773 3.773 0 0 1 61.841 1.851 A 4.602 4.602 0 0 1 62.062 2.228 A 3.447 3.447 0 0 1 62.38 3.139 Q 62.462 3.537 62.475 3.995 A 6.117 6.117 0 0 1 62.477 4.166 L 62.477 4.812 A 6.272 6.272 0 0 1 62.381 5.879 A 8.277 8.277 0 0 1 62.174 6.77 A 6.447 6.447 0 0 1 61.24 8.695 A 7.237 7.237 0 0 1 61.198 8.754 Q 61.778 9.11 62.286 9.611 A 5.432 5.432 0 0 1 63.103 10.649 A 6.104 6.104 0 0 1 63.176 10.771 A 5.805 5.805 0 0 1 63.627 11.758 A 7.018 7.018 0 0 1 63.782 12.261 A 6.424 6.424 0 0 1 63.972 13.337 A 8.118 8.118 0 0 1 64.006 14.093 Z M 41.779 7.91 L 41.779 10.995 A 8.677 8.677 0 0 1 41.524 13.131 A 7.598 7.598 0 0 1 41.179 14.172 A 7.574 7.574 0 0 1 39.658 16.534 A 7.282 7.282 0 0 1 39.524 16.671 A 7.576 7.576 0 0 1 37.042 18.303 A 8.641 8.641 0 0 1 37.02 18.312 A 8.071 8.071 0 0 1 34.394 18.891 A 9.43 9.43 0 0 1 33.869 18.905 L 24.614 18.905 A 1.816 1.816 0 0 1 24.095 18.833 A 1.66 1.66 0 0 1 23.928 18.774 Q 23.612 18.642 23.381 18.411 Q 23.15 18.18 23.019 17.864 Q 22.887 17.547 22.887 17.178 L 22.887 1.727 A 1.731 1.731 0 0 1 23.019 1.055 Q 23.15 0.738 23.381 0.501 Q 23.612 0.264 23.928 0.132 Q 24.245 0 24.614 0 L 33.869 0 A 8.558 8.558 0 0 1 36.136 0.293 A 7.69 7.69 0 0 1 37.02 0.593 Q 38.47 1.187 39.524 2.235 A 7.497 7.497 0 0 1 41.136 4.638 A 8.56 8.56 0 0 1 41.179 4.74 Q 41.779 6.196 41.779 7.91 Z M 82.622 9.453 L 92.338 18.905 L 87.473 18.905 L 79.761 11.18 L 77.348 11.18 L 77.348 7.726 L 79.761 7.726 L 87.473 0 L 92.338 0 L 82.622 9.453 Z M 60.579 14.726 L 60.579 14.093 A 3.677 3.677 0 0 0 60.521 13.427 A 2.891 2.891 0 0 0 60.368 12.887 A 2.697 2.697 0 0 0 59.895 12.1 A 2.549 2.549 0 0 0 59.774 11.971 A 2.548 2.548 0 0 0 58.935 11.417 A 2.952 2.952 0 0 0 58.852 11.384 A 3.13 3.13 0 0 0 58.124 11.209 A 3.978 3.978 0 0 0 57.639 11.18 L 49.913 11.18 L 49.913 7.726 L 56.096 7.726 A 3.815 3.815 0 0 0 56.773 7.668 A 3.033 3.033 0 0 0 57.309 7.521 A 2.632 2.632 0 0 0 58.044 7.104 A 2.449 2.449 0 0 0 58.232 6.935 A 2.575 2.575 0 0 0 58.806 6.052 A 2.945 2.945 0 0 0 58.819 6.018 A 3.056 3.056 0 0 0 58.993 5.307 A 3.946 3.946 0 0 0 59.023 4.812 L 59.023 4.166 Q 59.023 3.428 58.311 3.428 L 48.542 3.428 L 48.542 15.478 L 59.854 15.478 A 1.629 1.629 0 0 0 59.928 15.476 Q 59.962 15.474 59.999 15.471 A 3.297 3.297 0 0 0 60.078 15.464 A 0.556 0.556 0 0 0 60.261 15.415 A 0.521 0.521 0 0 0 60.315 15.385 A 0.4 0.4 0 0 0 60.402 15.31 Q 60.455 15.25 60.5 15.161 A 0.642 0.642 0 0 0 60.548 15.027 Q 60.579 14.9 60.579 14.726 Z M 75.977 0 L 75.977 18.905 L 72.549 18.905 L 72.549 0 L 75.977 0 Z M 38.351 10.995 L 38.351 7.91 A 5.41 5.41 0 0 0 38.237 6.781 A 4.555 4.555 0 0 0 38.028 6.078 A 4.094 4.094 0 0 0 37.363 4.934 A 3.815 3.815 0 0 0 37.112 4.661 Q 36.519 4.074 35.695 3.751 A 4.692 4.692 0 0 0 34.448 3.456 A 5.761 5.761 0 0 0 33.869 3.428 L 26.314 3.428 L 26.314 15.478 L 33.869 15.478 A 5.396 5.396 0 0 0 34.968 15.37 A 4.489 4.489 0 0 0 35.695 15.155 A 4.187 4.187 0 0 0 36.921 14.422 A 3.965 3.965 0 0 0 37.112 14.245 Q 37.705 13.658 38.028 12.834 A 4.672 4.672 0 0 0 38.316 11.641 A 5.836 5.836 0 0 0 38.351 10.995 Z M 69.326 17.844 A 1.613 1.613 0 0 0 69.464 17.178 A 1.582 1.582 0 0 0 69.326 16.526 A 1.788 1.788 0 0 0 68.957 15.985 A 1.788 1.788 0 0 0 68.416 15.616 A 1.582 1.582 0 0 0 67.764 15.478 A 1.613 1.613 0 0 0 67.098 15.616 A 1.788 1.788 0 0 0 66.557 15.985 A 1.694 1.694 0 0 0 66.195 16.526 Q 66.063 16.836 66.063 17.178 A 1.91 1.91 0 0 0 66.063 17.201 A 1.677 1.677 0 0 0 66.195 17.844 A 1.694 1.694 0 0 0 66.557 18.385 A 1.694 1.694 0 0 0 67.098 18.747 A 1.621 1.621 0 0 0 67.161 18.773 A 1.695 1.695 0 0 0 67.764 18.879 Q 68.106 18.879 68.416 18.747 A 1.694 1.694 0 0 0 68.957 18.385 A 1.788 1.788 0 0 0 69.326 17.844 Z"
      vector-effect="non-scaling-stroke"
      fill="url(#editing-gradient-gradient)"
    />
  </g>
</svg>
